<?xml version="1.0" standalone="no"?>
<!DOCTYPE svg PUBLIC "-//W3C//DTD SVG 20010904//EN"
 "http://www.w3.org/TR/2001/REC-SVG-20010904/DTD/svg10.dtd">
<svg version="1.0" xmlns="http://www.w3.org/2000/svg"
 width="453.000000pt" height="453.000000pt" viewBox="0 0 453.000000 453.000000"
 preserveAspectRatio="xMidYMid meet">
<metadata>
Created by potrace 1.11, written by Peter Selinger 2001-2013
</metadata>
<g transform="translate(0.000000,453.000000) scale(0.100000,-0.100000)"
fill="#000000" stroke="none">
<path d="M2010 4245 c0 -6 -10 -12 -22 -12 -13 -1 -28 -10 -35 -19 -8 -10 -13
-13 -13 -6 0 10 -5 10 -20 2 -15 -8 -20 -8 -20 1 0 9 -3 9 -14 0 -10 -9 -15
-9 -18 -1 -2 7 -13 3 -27 -9 -17 -15 -35 -20 -63 -18 -27 2 -43 -1 -51 -12 -8
-11 -27 -16 -57 -15 -30 0 -49 -5 -57 -15 -6 -9 -14 -13 -18 -9 -10 9 -45 -24
-38 -35 3 -6 1 -7 -6 -3 -6 4 -24 9 -40 11 -22 3 -28 0 -27 -13 1 -10 -7 -17
-21 -18 -41 -3 -44 -4 -39 -13 3 -5 -1 -11 -9 -15 -8 -3 -17 0 -21 6 -5 7 -10
3 -16 -11 -6 -18 -13 -21 -30 -15 -13 3 -20 3 -16 -1 10 -10 -14 -33 -29 -28
-6 3 -21 -5 -32 -16 -13 -13 -21 -16 -25 -8 -3 9 -5 9 -5 0 -1 -7 -8 -10 -18
-6 -10 4 -14 2 -10 -4 8 -13 -17 -36 -27 -25 -4 4 -6 0 -4 -8 2 -8 -1 -14 -7
-15 -5 0 -16 -4 -24 -9 -11 -7 -12 -6 -6 5 5 8 -9 -4 -32 -26 -22 -22 -38 -44
-36 -48 3 -5 -1 -8 -8 -6 -8 1 -19 1 -25 0 -17 -2 -54 -37 -47 -45 3 -3 -1 -6
-10 -6 -9 0 -17 -7 -17 -15 0 -9 -9 -15 -22 -15 -17 0 -19 -3 -9 -9 16 -11 3
-19 -26 -16 -13 1 -23 -2 -23 -8 0 -11 -61 -70 -95 -93 -20 -13 -23 -20 -14
-35 9 -18 3 -24 -23 -20 -4 0 -5 -6 -2 -14 4 -9 0 -15 -10 -15 -9 0 -16 -5
-16 -11 0 -5 -4 -7 -10 -4 -6 4 -7 -1 -3 -11 4 -12 3 -15 -5 -10 -7 4 -12 2
-12 -5 0 -6 -7 -17 -16 -23 -13 -10 -20 -28 -23 -58 -1 -5 -8 -8 -16 -8 -8 0
-15 -5 -15 -11 0 -5 -5 -7 -12 -3 -7 4 -8 3 -4 -4 4 -6 -2 -17 -13 -24 -15 -9
-17 -16 -9 -25 8 -10 4 -15 -13 -22 -13 -5 -20 -10 -15 -10 5 -1 0 -9 -10 -18
-11 -10 -19 -25 -19 -33 0 -8 -5 -20 -13 -25 -11 -9 -18 -28 -21 -58 -1 -5 -6
-5 -12 -1 -7 4 -10 -1 -7 -12 2 -11 -7 -29 -20 -41 -16 -15 -19 -22 -10 -26 9
-3 7 -10 -9 -21 -15 -11 -19 -22 -16 -37 4 -14 2 -20 -4 -16 -6 4 -15 -5 -22
-19 -8 -18 -8 -23 0 -18 8 4 8 0 0 -15 -9 -16 -9 -21 1 -22 7 0 3 -4 -9 -9
-15 -6 -21 -15 -17 -25 3 -8 1 -15 -6 -15 -6 0 -8 -4 -5 -10 3 -5 0 -10 -8
-10 -10 0 -13 -13 -13 -47 1 -27 -3 -49 -8 -50 -16 -3 -25 -27 -15 -39 7 -8 6
-15 -2 -19 -8 -6 -7 -10 2 -16 11 -7 11 -9 1 -9 -7 0 -11 -4 -8 -8 3 -5 -3
-18 -14 -29 -10 -12 -16 -23 -14 -26 11 -11 11 -42 0 -49 -6 -5 -7 -8 -1 -8
11 0 11 -72 0 -89 -3 -6 -2 -11 3 -11 5 0 9 -7 9 -14 0 -8 -3 -15 -6 -14 -24
2 -27 -8 -26 -77 1 -50 -2 -72 -9 -68 -6 4 -5 -1 3 -10 10 -13 11 -20 2 -30
-6 -8 -8 -17 -4 -21 11 -11 10 -186 -1 -179 -5 4 -6 1 0 -8 4 -8 9 -38 9 -67
1 -29 7 -58 15 -65 10 -10 11 -9 5 3 -5 8 -4 11 0 7 13 -11 15 -37 4 -37 -6 0
-6 -8 1 -19 7 -13 7 -22 0 -26 -7 -4 -7 -13 0 -26 6 -10 7 -19 3 -20 -4 0 2
-4 15 -9 19 -8 21 -13 12 -30 -8 -15 -8 -20 2 -20 10 0 10 -2 0 -9 -18 -11
-17 -20 5 -36 12 -9 18 -28 19 -62 3 -65 3 -65 14 -58 6 4 10 3 9 -2 -1 -4 0
-11 1 -15 4 -13 7 -27 9 -38 0 -5 7 -10 14 -10 14 0 16 -27 5 -46 -4 -5 4 -19
18 -29 16 -12 21 -21 13 -25 -7 -5 -5 -13 9 -26 10 -11 18 -29 17 -41 -1 -12
2 -20 6 -18 4 3 13 -3 20 -12 12 -14 12 -16 -1 -8 -12 7 -13 6 -3 -7 7 -8 9
-19 5 -23 -4 -5 1 -5 11 -2 15 6 17 3 12 -14 -5 -14 -3 -19 4 -15 6 4 9 1 5
-7 -3 -8 2 -17 11 -21 11 -4 14 -12 10 -26 -4 -14 -2 -20 8 -20 8 0 17 -9 20
-20 3 -11 13 -20 24 -20 15 0 16 -2 3 -10 -9 -6 -11 -10 -3 -10 7 0 10 -7 6
-15 -3 -10 0 -15 8 -13 8 2 13 -5 12 -15 0 -12 4 -16 13 -13 10 4 23 -12 41
-50 14 -30 28 -53 30 -50 7 6 73 -60 73 -73 0 -6 5 -11 11 -11 5 0 8 -4 5 -9
-3 -5 1 -14 9 -21 8 -7 12 -16 9 -21 -3 -5 2 -6 10 -3 11 4 16 0 16 -10 0 -9
7 -16 16 -16 10 0 14 -5 10 -16 -3 -8 -2 -12 4 -9 6 3 10 1 10 -5 0 -6 5 -8
12 -4 7 5 9 2 5 -9 -4 -12 -2 -14 10 -10 12 5 14 3 8 -8 -7 -12 -6 -12 7 -1
14 11 18 10 28 -8 6 -11 15 -18 21 -15 5 4 9 0 9 -8 0 -8 14 -24 30 -37 17
-13 30 -30 30 -38 0 -12 3 -12 16 -1 13 11 17 10 26 -4 5 -10 13 -15 18 -12 4
3 11 -2 14 -11 4 -10 2 -13 -6 -8 -7 4 -8 3 -4 -4 4 -7 14 -12 22 -12 8 0 12
-4 9 -10 -3 -5 1 -10 9 -10 9 0 16 -6 16 -12 0 -10 2 -10 8 -1 6 10 12 10 28
-3 10 -8 12 -13 4 -9 -8 4 -6 0 5 -9 11 -8 25 -20 31 -25 7 -5 15 -7 19 -3 4
4 13 -1 20 -12 8 -10 20 -16 27 -14 7 3 21 -4 30 -15 10 -11 23 -17 30 -14 14
5 40 -17 31 -26 -3 -4 6 -4 21 -1 20 3 26 0 26 -14 0 -14 7 -18 30 -16 17 1
28 -3 27 -10 -2 -10 6 -12 61 -15 13 -1 20 -5 17 -11 -3 -5 1 -11 9 -11 9 -1
21 -3 26 -4 6 -1 15 -3 21 -4 5 0 8 -5 4 -10 -3 -5 -1 -12 4 -15 5 -4 12 -2
16 3 3 7 15 7 30 1 16 -6 25 -5 29 3 3 9 5 8 5 -1 1 -7 5 -10 11 -7 5 3 10 -1
10 -10 0 -9 7 -16 18 -14 44 4 93 -2 87 -11 -3 -5 -1 -10 5 -10 6 0 8 -5 4
-12 -5 -7 -3 -8 7 -2 21 13 79 13 79 0 0 -6 4 -5 9 3 7 11 12 10 28 -5 21 -21
69 -31 57 -13 -4 7 2 6 17 -1 17 -10 24 -10 27 -1 2 6 8 8 14 5 15 -10 149
-10 155 -1 2 4 10 4 16 0 19 -12 58 -13 51 -1 -5 7 -2 8 7 3 17 -11 79 -13 85
-3 3 5 11 5 17 1 19 -11 58 -13 51 -1 -4 6 3 5 16 -2 18 -10 24 -9 31 1 6 9
12 10 17 4 10 -14 32 -17 32 -4 0 5 5 7 10 4 6 -4 9 -1 8 7 -4 16 70 19 91 4
11 -8 13 -8 8 0 -4 7 3 14 18 18 14 4 23 11 20 15 -6 11 14 9 33 -2 6 -5 12
-4 12 1 0 6 9 8 20 5 13 -4 27 3 40 18 13 16 22 20 27 13 12 -16 58 -10 78 10
10 9 24 15 31 12 7 -3 16 3 19 13 5 17 30 21 51 8 6 -3 21 6 34 20 15 17 25
23 28 15 3 -9 8 -8 18 3 9 8 12 19 9 25 -4 7 2 7 19 0 25 -9 31 -4 27 22 0 4
9 5 21 3 23 -5 51 12 43 25 -2 4 9 6 25 4 22 -3 28 0 24 11 -5 11 1 15 20 15
23 0 70 33 64 44 -2 2 0 8 5 12 4 4 7 3 7 -3 0 -6 9 -9 20 -6 12 3 19 8 16 10
-6 7 38 48 48 45 5 -2 6 4 3 12 -4 11 -1 13 10 9 12 -5 14 -3 8 7 -6 10 -4 12
8 7 17 -6 64 29 59 45 -2 6 4 8 13 4 9 -3 13 -2 10 4 -3 6 -1 10 5 10 6 0 8 5
4 12 -5 8 -2 9 10 5 9 -4 15 -3 13 1 -6 9 19 33 27 25 3 -3 17 2 32 11 14 10
23 20 20 23 -3 3 9 15 27 27 18 12 32 27 32 34 0 7 4 12 9 11 15 -1 25 25 14
38 -8 10 -6 13 7 13 9 0 19 9 22 20 3 11 9 17 14 15 4 -3 16 6 25 20 9 14 23
25 31 25 7 0 13 6 12 12 -4 31 2 48 18 48 9 0 14 3 11 6 -4 3 10 21 30 40 20
19 31 34 24 34 -6 0 -9 7 -6 15 4 8 10 13 14 10 5 -3 11 4 15 15 4 11 10 18
14 15 5 -2 13 7 20 21 7 17 8 23 0 19 -6 -4 -5 2 2 13 7 12 17 18 21 16 5 -3
7 6 4 20 -3 17 0 26 9 26 7 0 15 7 19 15 3 8 1 15 -5 15 -5 0 -4 6 3 14 7 8
17 11 22 8 5 -3 7 2 3 10 -3 9 1 24 8 35 8 10 15 24 15 31 0 18 26 43 35 34 4
-4 5 0 3 8 -2 8 -7 18 -12 21 -5 4 1 21 14 38 12 18 19 39 16 47 -3 8 -2 13 2
11 15 -10 28 20 26 66 -1 26 1 45 3 43 13 -13 30 21 23 46 -5 14 -5 29 -2 33
7 6 8 10 11 36 0 5 6 7 12 3 8 -4 10 8 8 40 -3 27 0 46 6 46 5 0 3 5 -5 10
-11 7 -11 10 -2 10 7 0 10 5 7 10 -3 6 -1 10 5 10 6 0 8 5 5 10 -3 6 -2 10 3
10 5 0 8 24 7 53 -1 28 3 58 9 66 7 10 8 13 0 8 -12 -7 -13 107 -1 119 3 4 3
14 -2 23 -10 21 -8 152 3 170 6 9 5 12 -1 8 -6 -4 -9 16 -8 51 1 40 -5 67 -18
90 -14 24 -16 32 -5 32 8 0 9 3 3 8 -13 9 -15 42 -3 42 6 0 5 6 -2 15 -10 12
-10 15 1 15 11 0 11 2 -1 9 -8 6 -18 7 -22 5 -5 -3 -6 8 -3 25 3 18 1 31 -5
31 -6 0 -6 9 0 26 9 22 7 27 -9 31 -17 4 -19 13 -17 58 2 36 -1 52 -8 49 -7
-3 -16 10 -21 28 -6 18 -16 32 -22 31 -9 -2 -10 4 -5 20 11 29 4 60 -13 53 -9
-3 -12 3 -10 20 1 14 -5 30 -14 37 -9 7 -17 20 -18 30 -2 39 -3 42 -13 27 -8
-13 -10 -12 -11 5 -1 11 -1 25 0 31 1 7 -5 14 -14 18 -8 3 -15 17 -15 32 0 18
-4 25 -14 21 -10 -4 -13 3 -11 24 1 16 -1 29 -5 29 -4 0 -20 11 -36 25 -16 14
-23 25 -15 25 10 0 11 3 2 13 -6 8 -7 18 -3 22 4 5 1 5 -6 1 -7 -4 -15 -1 -18
8 -3 9 -10 13 -15 10 -5 -3 -9 2 -9 10 0 9 -7 16 -16 16 -8 0 -12 5 -9 10 3 6
2 10 -3 10 -6 0 -8 8 -5 18 3 12 -4 23 -21 31 -14 8 -23 18 -21 22 3 4 -4 10
-15 14 -11 3 -20 14 -20 22 0 9 -3 13 -7 10 -3 -4 -11 3 -18 16 -7 13 -8 24
-2 28 5 4 0 10 -12 14 -11 3 -21 11 -21 16 0 6 -5 7 -10 4 -6 -4 -10 -3 -9 2
3 18 -1 36 -8 30 -6 -7 -53 38 -53 52 0 5 -11 6 -24 4 -18 -4 -26 0 -31 16 -3
12 -11 19 -16 16 -5 -4 -9 1 -9 10 0 9 -4 13 -10 10 -5 -3 -10 1 -10 10 0 9
-9 19 -20 22 -11 3 -17 10 -13 16 4 6 -2 8 -15 5 -14 -4 -27 1 -39 15 -10 11
-12 17 -4 12 9 -5 12 -4 7 3 -4 6 -14 8 -23 5 -11 -4 -14 -3 -9 5 4 7 2 12 -4
12 -6 0 -8 5 -5 10 4 6 1 9 -7 8 -7 -2 -12 2 -11 8 1 6 -8 10 -20 9 -11 -1
-32 10 -45 24 -14 14 -28 25 -33 24 -5 -2 -9 3 -9 10 0 9 -3 8 -9 -2 -7 -11
-10 -9 -16 8 -5 16 -10 19 -19 12 -13 -11 -40 1 -34 15 1 5 -10 11 -27 14 -18
4 -29 12 -27 19 2 9 -3 11 -13 8 -8 -4 -15 -1 -15 6 0 8 -3 8 -9 -2 -7 -11
-10 -9 -16 9 -5 16 -10 19 -18 11 -9 -9 -15 -6 -27 9 -10 14 -29 21 -57 23
-32 1 -43 7 -47 21 -4 14 -8 17 -18 9 -14 -12 -43 9 -30 22 4 4 -13 6 -38 5
-61 -3 -72 -2 -65 10 6 10 0 12 -62 13 -24 1 -45 9 -55 21 -13 14 -18 15 -18
5 0 -10 -2 -11 -8 -2 -5 8 -13 9 -22 3 -8 -5 -21 -5 -32 1 -13 7 -18 6 -18 -2
0 -7 -11 -2 -24 10 -19 18 -31 22 -51 17 -19 -5 -25 -3 -20 5 6 8 2 8 -12 0
-14 -7 -23 -7 -31 1 -7 7 -12 8 -12 3 0 -13 -173 -13 -182 0 -5 6 -8 6 -8 -2
0 -11 -30 -10 -49 2 -5 3 -12 1 -15 -3 -6 -10 -48 -8 -65 2 -5 4 -12 2 -15 -3
-6 -9 -60 -6 -77 4 -5 4 -9 0 -9 -7 0 -9 -3 -9 -10 2 -5 8 -10 10 -10 5z"/>
</g>
</svg>
